<svg width="1300" height="1300" viewBox="0 0 1300 1300" fill="none" xmlns="http://www.w3.org/2000/svg">
<g filter="url(#filter0_d)">
<path d="M650 1170.27C547.1 1170.27 446.511 1139.76 360.953 1082.59C275.395 1025.42 208.711 944.166 169.333 849.099C129.955 754.032 119.652 649.423 139.727 548.5C159.801 447.578 209.352 354.874 282.113 282.113C354.874 209.352 447.578 159.801 548.5 139.727C649.423 119.652 754.032 129.955 849.099 169.333C944.166 208.711 1025.42 275.395 1082.59 360.953C1139.76 446.511 1170.27 547.1 1170.27 650C1170.11 787.936 1115.25 920.177 1017.71 1017.71C920.177 1115.25 787.936 1170.11 650 1170.27V1170.27ZM650 159.459C552.98 159.459 458.139 188.229 377.47 242.13C296.801 296.032 233.927 372.644 196.8 462.278C159.672 551.913 149.957 650.544 168.885 745.7C187.813 840.855 234.532 928.261 303.135 996.865C371.739 1065.47 459.145 1112.19 554.3 1131.11C649.456 1150.04 748.087 1140.33 837.722 1103.2C927.356 1066.07 1003.97 1003.2 1057.87 922.53C1111.77 841.861 1140.54 747.02 1140.54 650C1140.4 519.945 1088.67 395.259 996.704 303.296C904.741 211.334 780.055 159.605 650 159.459V159.459Z" fill="#FE5000" fill-opacity="0.3"/>
<path d="M650 1075.68C565.809 1075.68 483.509 1050.71 413.507 1003.94C343.505 957.162 288.945 890.681 256.727 812.899C224.509 735.117 216.079 649.528 232.504 566.955C248.928 484.382 289.47 408.534 349.002 349.002C408.534 289.47 484.382 248.928 566.955 232.503C649.528 216.079 735.117 224.508 812.899 256.727C890.681 288.945 957.163 343.505 1003.94 413.507C1050.71 483.509 1075.68 565.809 1075.68 650C1075.55 762.857 1030.66 871.054 950.856 950.856C871.054 1030.66 762.857 1075.55 650 1075.68V1075.68ZM650 248.648C570.62 248.648 493.023 272.187 427.021 316.288C361.019 360.389 309.577 423.072 279.2 496.409C248.822 569.747 240.874 650.445 256.36 728.3C271.847 806.154 310.072 877.668 366.202 933.798C422.332 989.928 493.846 1028.15 571.7 1043.64C649.555 1059.13 730.253 1051.18 803.591 1020.8C876.928 990.423 939.61 938.981 983.712 872.979C1027.81 806.977 1051.35 729.38 1051.35 650C1051.23 543.591 1008.91 441.575 933.667 366.333C858.425 291.091 756.408 248.768 650 248.648V248.648Z" fill="#FE5000" fill-opacity="0.5"/>
<path d="M650 981.081C584.518 981.081 520.507 961.663 466.061 925.284C411.615 888.904 369.18 837.196 344.121 776.699C319.062 716.202 312.506 649.633 325.28 585.409C338.055 521.186 369.588 462.193 415.89 415.89C462.193 369.588 521.186 338.055 585.409 325.28C649.633 312.506 716.202 319.062 776.699 344.121C837.196 369.18 888.904 411.615 925.284 466.061C961.663 520.507 981.081 584.518 981.081 650C980.981 737.777 946.067 821.931 883.999 883.999C821.931 946.067 737.777 980.981 650 981.081V981.081ZM650 337.838C588.26 337.838 527.907 356.146 476.572 390.447C425.237 424.747 385.227 473.5 361.6 530.541C337.973 587.581 331.791 650.346 343.836 710.9C355.881 771.453 385.611 827.075 429.268 870.732C472.925 914.389 528.547 944.119 589.1 956.164C649.654 968.209 712.419 962.027 769.459 938.4C826.499 914.773 875.252 874.763 909.553 823.428C943.854 772.093 962.162 711.74 962.162 650C962.069 567.238 929.151 487.892 870.63 429.37C812.108 370.849 732.762 337.93 650 337.838V337.838Z" fill="#FE5000" fill-opacity="0.7"/>
</g>
<path d="M650 1264.86C528.391 1264.86 409.513 1228.8 308.399 1161.24C207.285 1093.68 128.477 997.65 81.939 885.299C35.4013 772.947 23.2249 649.318 46.9496 530.046C70.6743 410.774 129.235 301.215 215.225 215.225C301.215 129.234 410.774 70.6742 530.046 46.9495C649.318 23.2248 772.947 35.4012 885.299 81.9389C997.651 128.477 1093.68 207.285 1161.24 308.399C1228.8 409.513 1264.87 528.391 1264.87 650C1264.68 813.015 1199.84 969.3 1084.57 1084.57C969.301 1199.84 813.015 1264.68 650 1264.86V1264.86ZM650 70.2702C535.34 70.2702 423.256 104.271 327.919 167.972C232.583 231.674 158.278 322.215 114.4 428.147C70.5212 534.079 59.0406 650.643 81.4096 763.1C103.779 875.556 158.993 978.854 240.069 1059.93C321.146 1141.01 424.444 1196.22 536.9 1218.59C649.357 1240.96 765.921 1229.48 871.853 1185.6C977.785 1141.72 1068.33 1067.42 1132.03 972.081C1195.73 876.744 1229.73 764.66 1229.73 650C1229.56 496.299 1168.42 348.942 1059.74 240.259C951.058 131.576 803.701 70.4422 650 70.2702V70.2702Z" fill="#FE5000" fill-opacity="0.1"/>
<defs>
<filter id="filter0_d" x="96" y="100" width="1108" height="1108" filterUnits="userSpaceOnUse" color-interpolation-filters="sRGB">
<feFlood flood-opacity="0" result="BackgroundImageFix"/>
<feColorMatrix in="SourceAlpha" type="matrix" values="0 0 0 0 0 0 0 0 0 0 0 0 0 0 0 0 0 0 127 0"/>
<feOffset dy="4"/>
<feGaussianBlur stdDeviation="2"/>
<feColorMatrix type="matrix" values="0 0 0 0 0 0 0 0 0 0 0 0 0 0 0 0 0 0 0.25 0"/>
<feBlend mode="normal" in2="BackgroundImageFix" result="effect1_dropShadow"/>
<feBlend mode="normal" in="SourceGraphic" in2="effect1_dropShadow" result="shape"/>
</filter>
</defs>
</svg>
