<svg width="598" height="539" viewBox="0 0 598 539" fill="none" xmlns="http://www.w3.org/2000/svg">
<path d="M143 96H469V277.05L426 317L368.5 362L305.5 335.453L245 362L148 277.05L143 96Z" fill="#FE5000"/>
<path d="M72.7568 227.649C71.298 227.65 69.8761 227.191 68.6941 226.336C67.5122 225.481 66.6307 224.274 66.1756 222.888C65.7205 221.502 65.7152 220.008 66.1602 218.619C66.6053 217.23 67.4781 216.017 68.6538 215.153L137.843 164.299C138.575 163.761 139.406 163.373 140.289 163.156C141.171 162.939 142.088 162.899 142.986 163.036C143.884 163.174 144.747 163.487 145.524 163.957C146.301 164.428 146.978 165.047 147.516 165.78C148.054 166.512 148.442 167.343 148.659 168.226C148.875 169.108 148.916 170.024 148.779 170.923C148.641 171.821 148.328 172.683 147.857 173.46C147.387 174.238 146.767 174.914 146.035 175.452L76.8458 226.306C75.6617 227.18 74.2284 227.651 72.7568 227.649Z" fill="#757575"/>
<path d="M543.243 525.162H406.525C404.69 525.162 402.931 524.433 401.633 523.136C400.335 521.838 399.607 520.078 399.607 518.243C399.607 516.408 400.335 514.648 401.633 513.351C402.931 512.053 404.69 511.324 406.525 511.324H536.324V220.73C536.324 218.895 537.053 217.135 538.351 215.837C539.648 214.54 541.408 213.811 543.243 213.811C545.078 213.811 546.838 214.54 548.136 215.837C549.433 217.135 550.162 218.895 550.162 220.73V518.243C550.162 520.078 549.433 521.838 548.136 523.136C546.838 524.433 545.078 525.162 543.243 525.162Z" fill="#757575"/>
<path d="M289.111 525.162H269.046C267.211 525.162 265.452 524.433 264.154 523.136C262.857 521.838 262.128 520.078 262.128 518.243C262.128 516.408 262.857 514.648 264.154 513.351C265.452 512.053 267.211 511.324 269.046 511.324H289.111C290.946 511.324 292.706 512.053 294.004 513.351C295.301 514.648 296.03 516.408 296.03 518.243C296.03 520.078 295.301 521.838 294.004 523.136C292.706 524.433 290.946 525.162 289.111 525.162Z" fill="#757575"/>
<path d="M220.614 525.162H72.7567C70.9217 525.162 69.1619 524.433 67.8643 523.136C66.5668 521.838 65.8378 520.078 65.8378 518.243V220.73C65.8378 218.895 66.5668 217.135 67.8643 215.837C69.1619 214.54 70.9217 213.811 72.7567 213.811C74.5918 213.811 76.3516 214.54 77.6492 215.837C78.9467 217.135 79.6757 218.895 79.6757 220.73V511.324H220.614C222.449 511.324 224.209 512.053 225.506 513.351C226.804 514.648 227.533 516.408 227.533 518.243C227.533 520.078 226.804 521.838 225.506 523.136C224.209 524.433 222.449 525.162 220.614 525.162Z" fill="#757575"/>
<path d="M358.093 525.162H337.544C335.709 525.162 333.949 524.433 332.651 523.136C331.354 521.838 330.625 520.078 330.625 518.243C330.625 516.408 331.354 514.648 332.651 513.351C333.949 512.053 335.709 511.324 337.544 511.324H358.093C359.928 511.324 361.688 512.053 362.985 513.351C364.283 514.648 365.012 516.408 365.012 518.243C365.012 520.078 364.283 521.838 362.985 523.136C361.688 524.433 359.928 525.162 358.093 525.162Z" fill="#757575"/>
<path d="M358.093 525.162H337.544C335.709 525.162 333.949 524.433 332.651 523.136C331.354 521.838 330.625 520.078 330.625 518.243C330.625 516.408 331.354 514.648 332.651 513.351C333.949 512.053 335.709 511.324 337.544 511.324H358.093C359.928 511.324 361.688 512.053 362.985 513.351C364.283 514.648 365.012 516.408 365.012 518.243C365.012 520.078 364.283 521.838 362.985 523.136C361.688 524.433 359.928 525.162 358.093 525.162Z" fill="#757575"/>
<path d="M97.9019 64.0188L112.047 78.9246C113.31 80.2557 114.251 81.7892 114.662 83.1877C115.073 84.5862 114.922 85.7352 114.24 86.3819C113.559 87.0287 112.403 87.1201 111.028 86.6362C109.653 86.1523 108.171 85.1327 106.908 83.8016L92.7627 68.8958C91.4995 67.5647 90.5589 66.0313 90.1476 64.6327C89.7363 63.2342 89.8881 62.0852 90.5696 61.4385C91.2512 60.7917 92.4065 60.7003 93.7816 61.1842C95.1567 61.6681 96.6388 62.6877 97.9019 64.0188Z" fill="#FE5000"/>
<path d="M543.243 227.649C541.772 227.651 540.338 227.18 539.154 226.306L469.965 175.452C469.233 174.914 468.613 174.238 468.143 173.46C467.672 172.683 467.359 171.821 467.221 170.923C467.084 170.024 467.125 169.108 467.341 168.226C467.558 167.343 467.946 166.512 468.484 165.78C469.022 165.047 469.699 164.428 470.476 163.957C471.254 163.487 472.116 163.174 473.014 163.036C473.912 162.899 474.829 162.939 475.711 163.156C476.594 163.373 477.425 163.761 478.157 164.299L547.346 215.153C548.522 216.017 549.395 217.23 549.84 218.619C550.285 220.008 550.279 221.502 549.824 222.888C549.369 224.274 548.488 225.481 547.306 226.336C546.124 227.191 544.702 227.65 543.243 227.649Z" fill="#757575"/>
<path d="M383.271 110.027C381.799 110.029 380.366 109.559 379.182 108.685L308 56.3431L236.818 108.685C235.339 109.771 233.489 110.225 231.675 109.948C229.861 109.67 228.232 108.683 227.146 107.204C226.059 105.725 225.605 103.875 225.883 102.061C226.16 100.247 227.147 98.6178 228.626 97.5315L303.904 42.1801C305.092 41.3078 306.527 40.8374 308 40.8374C309.473 40.8374 310.908 41.3078 312.096 42.1801L387.374 97.5315C388.55 98.3949 389.422 99.6079 389.867 100.997C390.312 102.386 390.307 103.881 389.852 105.267C389.397 106.653 388.515 107.859 387.334 108.714C386.152 109.569 384.73 110.029 383.271 110.027Z" fill="#757575"/>
<path d="M474.054 286.044C472.219 286.044 470.459 285.315 469.162 284.018C467.864 282.72 467.135 280.96 467.135 279.125V110.027H148.865V279.125C148.865 280.96 148.136 282.72 146.838 284.018C145.541 285.315 143.781 286.044 141.946 286.044C140.111 286.044 138.351 285.315 137.054 284.018C135.756 282.72 135.027 280.96 135.027 279.125V103.108C135.027 101.273 135.756 99.5133 137.054 98.2157C138.351 96.9182 140.111 96.1892 141.946 96.1892H474.054C475.889 96.1892 477.649 96.9182 478.947 98.2157C480.244 99.5133 480.973 101.273 480.973 103.108V279.125C480.973 280.96 480.244 282.72 478.947 284.018C477.649 285.315 475.889 286.044 474.054 286.044Z" fill="#FE5000"/>
<path d="M543.243 525.162C541.61 525.162 540.029 524.583 538.781 523.529L351.063 365.148C339.031 354.953 323.771 349.358 308 349.358C292.229 349.358 276.969 354.953 264.937 365.148L77.2194 523.529C76.5277 524.133 75.7227 524.594 74.8513 524.883C73.9798 525.173 73.0594 525.286 72.1438 525.217C71.2281 525.147 70.3354 524.896 69.5178 524.478C68.7002 524.06 67.974 523.483 67.3816 522.781C66.7892 522.079 66.3424 521.267 66.0673 520.391C65.7922 519.515 65.6942 518.592 65.7792 517.678C65.8641 516.764 66.1302 515.875 66.562 515.065C66.9937 514.254 67.5825 513.538 68.294 512.957L256.011 354.569C270.537 342.259 288.96 335.503 308 335.503C327.04 335.503 345.463 342.259 359.989 354.569L547.706 512.957C548.789 513.872 549.565 515.098 549.929 516.468C550.293 517.839 550.227 519.288 549.74 520.619C549.253 521.951 548.369 523.101 547.207 523.913C546.045 524.726 544.661 525.162 543.243 525.162Z" fill="#757575"/>
<path d="M366.956 376.405C365.538 376.407 364.153 375.972 362.99 375.16C361.827 374.348 360.942 373.198 360.454 371.866C359.966 370.534 359.899 369.084 360.263 367.713C360.627 366.342 361.403 365.116 362.486 364.2L538.781 215.444C540.187 214.296 541.988 213.747 543.795 213.915C545.602 214.083 547.271 214.954 548.442 216.341C549.613 217.728 550.192 219.519 550.054 221.329C549.916 223.139 549.073 224.822 547.706 226.016L371.412 374.773C370.167 375.828 368.588 376.407 366.956 376.405Z" fill="#757575"/>
<path d="M249.044 376.405C247.412 376.408 245.832 375.829 244.588 374.773L68.294 226.016C67.5825 225.435 66.9937 224.719 66.562 223.908C66.1302 223.098 65.8641 222.209 65.7792 221.295C65.6942 220.381 65.7922 219.458 66.0673 218.582C66.3424 217.706 66.7892 216.894 67.3816 216.192C67.974 215.49 68.7002 214.913 69.5178 214.495C70.3354 214.077 71.2281 213.826 72.1438 213.756C73.0594 213.687 73.9798 213.8 74.8513 214.09C75.7227 214.379 76.5277 214.84 77.2194 215.444L253.514 364.2C254.597 365.116 255.373 366.342 255.737 367.713C256.101 369.084 256.034 370.534 255.546 371.866C255.058 373.198 254.173 374.348 253.01 375.16C251.847 375.972 250.462 376.407 249.044 376.405Z" fill="#757575"/>
<path d="M549.364 93.7581L537.141 110.277C536.049 111.752 534.703 112.944 533.397 113.592C532.091 114.24 530.933 114.29 530.178 113.731C529.422 113.173 529.132 112.051 529.37 110.612C529.607 109.174 530.354 107.537 531.446 106.062L543.669 89.5438C544.76 88.0687 546.107 86.876 547.413 86.2282C548.719 85.5803 549.877 85.5303 550.632 86.0891C551.387 86.648 551.678 87.7699 551.44 89.2081C551.202 90.6464 550.456 92.283 549.364 93.7581Z" fill="white"/>
<path d="M195.792 67.4514L184.45 50.3157C183.437 48.7855 182.777 47.112 182.615 45.6633C182.452 44.2146 182.801 43.1094 183.585 42.5909C184.368 42.0723 185.522 42.1828 186.792 42.8982C188.062 43.6135 189.345 44.875 190.358 46.4052L201.7 63.5409C202.712 65.0711 203.373 66.7446 203.535 68.1933C203.697 69.6419 203.348 70.7471 202.564 71.2657C201.781 71.7843 200.627 71.6737 199.357 70.9584C198.087 70.243 196.804 68.9815 195.792 67.4514Z" fill="white"/>
<path d="M432 58C429.243 58 427 60.2429 427 63C427 65.7571 429.243 68 432 68C434.757 68 437 65.7571 437 63C437 60.2429 434.757 58 432 58Z" fill="white"/>
<path d="M432 58C429.243 58 427 60.2429 427 63C427 65.7571 429.243 68 432 68C434.757 68 437 65.7571 437 63C437 60.2429 434.757 58 432 58Z" fill="white"/>
<g clip-path="url(#clip0)">
<path d="M370.389 228.303C368.241 226.409 364.759 226.409 362.611 228.303L296.717 286.41L271.389 264.075C269.241 262.18 265.759 262.181 263.611 264.075C261.463 265.968 261.463 269.039 263.611 270.933L292.828 296.697C294.975 298.591 298.46 298.59 300.607 296.697L370.389 235.162C372.537 233.268 372.537 230.197 370.389 228.303Z" fill="white"/>
</g>
<path d="M400.034 9.77616L387.811 26.2948C386.719 27.7699 385.373 28.9625 384.067 29.6104C382.761 30.2583 381.603 30.3083 380.848 29.7494C380.092 29.1906 379.802 28.0686 380.039 26.6304C380.277 25.1922 381.024 23.5555 382.116 22.0805L394.339 5.56185C395.43 4.08676 396.777 2.89411 398.083 2.24623C399.389 1.59836 400.547 1.54833 401.302 2.10719C402.057 2.66604 402.348 3.788 402.11 5.22621C401.872 6.66442 401.125 8.30108 400.034 9.77616Z" fill="#FE5000"/>
<path d="M578.03 154L592.97 154C594.304 154 595.583 154.263 596.527 154.732C597.47 155.201 598 155.837 598 156.5C598 157.163 597.47 157.799 596.527 158.268C595.583 158.737 594.304 159 592.97 159L578.03 159C576.696 159 575.417 158.737 574.473 158.268C573.53 157.799 573 157.163 573 156.5C573 155.837 573.53 155.201 574.473 154.732C575.417 154.263 576.696 154 578.03 154Z" fill="#FE5000"/>
<path d="M583 164.171L583 149.829C583 148.548 583.263 147.32 583.732 146.414C584.201 145.509 584.837 145 585.5 145C586.163 145 586.799 145.509 587.268 146.414C587.737 147.32 588 148.548 588 149.829L588 164.171C588 165.452 587.737 166.68 587.268 167.586C586.799 168.491 586.163 169 585.5 169C584.837 169 584.201 168.491 583.732 167.586C583.263 166.68 583 165.452 583 164.171Z" fill="#FE5000"/>
<path d="M578.03 154L592.97 154C594.304 154 595.583 154.263 596.527 154.732C597.47 155.201 598 155.837 598 156.5C598 157.163 597.47 157.799 596.527 158.268C595.583 158.737 594.304 159 592.97 159L578.03 159C576.696 159 575.417 158.737 574.473 158.268C573.53 157.799 573 157.163 573 156.5C573 155.837 573.53 155.201 574.473 154.732C575.417 154.263 576.696 154 578.03 154Z" fill="#FE5000"/>
<path d="M583 164.171L583 149.829C583 148.548 583.263 147.32 583.732 146.414C584.201 145.509 584.837 145 585.5 145C586.163 145 586.799 145.509 587.268 146.414C587.737 147.32 588 148.548 588 149.829L588 164.171C588 165.452 587.737 166.68 587.268 167.586C586.799 168.491 586.163 169 585.5 169C584.837 169 584.201 168.491 583.732 167.586C583.263 166.68 583 165.452 583 164.171Z" fill="#FE5000"/>
<path d="M5.03018 101L19.9698 101C21.3039 101 22.5834 101.263 23.5267 101.732C24.47 102.201 25 102.837 25 103.5C25 104.163 24.47 104.799 23.5267 105.268C22.5834 105.737 21.3039 106 19.9698 106L5.03018 106C3.69609 106 2.41666 105.737 1.47332 105.268C0.529978 104.799 4.09674e-07 104.163 3.8543e-07 103.5C3.61186e-07 102.837 0.529978 102.201 1.47332 101.732C2.41666 101.263 3.69609 101 5.03018 101Z" fill="white"/>
<path d="M10 111.171L10 96.829C10 95.5482 10.2634 94.32 10.7322 93.4144C11.2011 92.5088 11.837 92 12.5 92C13.163 92 13.7989 92.5088 14.2678 93.4144C14.7366 94.32 15 95.5482 15 96.829L15 111.171C15 112.452 14.7366 113.68 14.2678 114.586C13.7989 115.491 13.163 116 12.5 116C11.837 116 11.2011 115.491 10.7322 114.586C10.2634 113.68 10 112.452 10 111.171Z" fill="white"/>
<path d="M270.5 4C266.364 4 263 7.36437 263 11.5C263 15.6356 266.364 19 270.5 19C274.636 19 278 15.6356 278 11.5C278 7.36437 274.636 4 270.5 4Z" fill="white"/>
<path d="M45.5 157C41.9158 157 39 159.916 39 163.5C39 167.084 41.9158 170 45.5 170C49.0842 170 52 167.084 52 163.5C52 159.916 49.0842 157 45.5 157Z" fill="#FE5000"/>
<path d="M510.5 14C506.916 14 504 16.9158 504 20.5C504 24.0842 506.916 27 510.5 27C514.084 27 517 24.0842 517 20.5C517 16.9158 514.084 14 510.5 14Z" fill="#FE5000"/>
<defs>
<clipPath id="clip0">
<rect width="110" height="97" fill="white" transform="translate(262 214)"/>
</clipPath>
</defs>
</svg>
