<svg width="1108" height="1108" viewBox="0 0 1108 1108" fill="none" xmlns="http://www.w3.org/2000/svg">
<g filter="url(#filter0_d)">
<path d="M554 1070.27C451.1 1070.27 350.511 1039.76 264.953 982.589C179.395 925.421 112.711 844.166 73.333 749.099C33.955 654.032 23.6519 549.423 43.7266 448.5C63.8014 347.578 113.352 254.874 186.113 182.113C258.875 109.352 351.578 59.8013 452.5 39.7266C553.423 19.6518 658.032 29.9549 753.099 69.3329C848.166 108.711 929.421 175.395 986.589 260.953C1043.76 346.511 1074.27 447.1 1074.27 550C1074.11 687.936 1019.25 820.177 921.713 917.713C824.177 1015.25 691.936 1070.11 554 1070.27V1070.27ZM554 59.4595C456.98 59.4595 362.139 88.2292 281.47 142.13C200.801 196.032 137.928 272.644 100.8 362.278C63.6718 451.913 53.9575 550.544 72.8851 645.7C91.8127 740.855 138.532 828.261 207.136 896.865C275.739 965.468 363.145 1012.19 458.3 1031.11C553.456 1050.04 652.087 1040.33 741.722 1003.2C831.356 966.073 907.968 903.199 961.87 822.53C1015.77 741.861 1044.54 647.02 1044.54 550C1044.4 419.945 992.667 295.259 900.704 203.296C808.741 111.334 684.055 59.605 554 59.4595V59.4595Z" fill="#FE5000" fill-opacity="0.5"/>
<path d="M554 975.676C469.809 975.676 387.509 950.71 317.507 903.936C247.505 857.162 192.945 790.681 160.727 712.899C128.509 635.117 120.079 549.528 136.504 466.955C152.928 384.382 193.47 308.534 253.002 249.002C312.534 189.47 388.382 148.928 470.955 132.503C553.528 116.079 639.117 124.508 716.899 156.727C794.681 188.945 861.163 243.505 907.936 313.507C954.71 383.509 979.676 465.809 979.676 550C979.547 662.857 934.658 771.054 854.856 850.856C775.054 930.658 666.857 975.547 554 975.676V975.676ZM554 148.648C474.62 148.648 397.023 172.187 331.021 216.288C265.019 260.389 213.577 323.072 183.2 396.409C152.822 469.747 144.874 550.445 160.36 628.3C175.847 706.154 214.072 777.668 270.202 833.798C326.332 889.928 397.846 928.153 475.7 943.639C553.555 959.126 634.253 951.177 707.591 920.8C780.928 890.423 843.61 838.981 887.712 772.979C931.813 706.977 955.351 629.38 955.351 550C955.232 443.591 912.909 341.575 837.667 266.333C762.425 191.091 660.408 148.768 554 148.648V148.648Z" fill="#FE5000" fill-opacity="0.6"/>
<path d="M554 881.081C488.518 881.081 424.507 861.663 370.061 825.284C315.615 788.904 273.18 737.196 248.121 676.699C223.062 616.202 216.506 549.633 229.281 485.409C242.055 421.186 273.588 362.193 319.89 315.89C366.193 269.588 425.186 238.055 489.409 225.28C553.633 212.506 620.202 219.062 680.699 244.121C741.196 269.18 792.904 311.615 829.284 366.061C865.663 420.507 885.081 484.518 885.081 550C884.981 637.777 850.067 721.931 787.999 783.999C725.931 846.067 641.777 880.981 554 881.081V881.081ZM554 237.838C492.26 237.838 431.907 256.146 380.572 290.447C329.237 324.747 289.227 373.5 265.6 430.541C241.973 487.581 235.791 550.346 247.836 610.9C259.881 671.453 289.611 727.075 333.268 770.732C376.925 814.389 432.547 844.119 493.1 856.164C553.654 868.209 616.419 862.027 673.459 838.4C730.499 814.773 779.253 774.763 813.553 723.428C847.854 672.093 866.162 611.74 866.162 550C866.07 467.238 833.151 387.892 774.63 329.37C716.108 270.849 636.762 237.93 554 237.838V237.838Z" fill="#FE5000" fill-opacity="0.7"/>
</g>
<defs>
<filter id="filter0_d" x="0" y="0" width="1108" height="1108" filterUnits="userSpaceOnUse" color-interpolation-filters="sRGB">
<feFlood flood-opacity="0" result="BackgroundImageFix"/>
<feColorMatrix in="SourceAlpha" type="matrix" values="0 0 0 0 0 0 0 0 0 0 0 0 0 0 0 0 0 0 127 0"/>
<feOffset dy="4"/>
<feGaussianBlur stdDeviation="2"/>
<feColorMatrix type="matrix" values="0 0 0 0 0 0 0 0 0 0 0 0 0 0 0 0 0 0 0.25 0"/>
<feBlend mode="normal" in2="BackgroundImageFix" result="effect1_dropShadow"/>
<feBlend mode="normal" in="SourceGraphic" in2="effect1_dropShadow" result="shape"/>
</filter>
</defs>
</svg>
