<svg width="1300" height="1300" viewBox="0 0 1300 1300" fill="none" xmlns="http://www.w3.org/2000/svg">
<path d="M650 1264.86C528.391 1264.86 409.513 1228.8 308.399 1161.24C207.285 1093.68 128.477 997.65 81.939 885.299C35.4013 772.947 23.2249 649.318 46.9496 530.046C70.6743 410.774 129.235 301.215 215.225 215.225C301.215 129.234 410.774 70.6742 530.046 46.9495C649.318 23.2248 772.947 35.4012 885.299 81.9389C997.651 128.477 1093.68 207.285 1161.24 308.399C1228.8 409.513 1264.87 528.391 1264.87 650C1264.68 813.015 1199.84 969.3 1084.57 1084.57C969.301 1199.84 813.015 1264.68 650 1264.86V1264.86ZM650 70.2702C535.34 70.2702 423.256 104.271 327.919 167.972C232.583 231.674 158.278 322.215 114.4 428.147C70.5212 534.079 59.0406 650.643 81.4096 763.1C103.779 875.556 158.993 978.854 240.069 1059.93C321.146 1141.01 424.444 1196.22 536.9 1218.59C649.357 1240.96 765.921 1229.48 871.853 1185.6C977.785 1141.72 1068.33 1067.42 1132.03 972.081C1195.73 876.744 1229.73 764.66 1229.73 650C1229.56 496.299 1168.42 348.942 1059.74 240.259C951.058 131.576 803.701 70.4422 650 70.2702V70.2702Z" fill="#FE5000" fill-opacity="0.1"/>
</svg>
