<svg class="rbh" width="100%" height="100%" viewBox="0 0 100 200">
  <polygon className="head" points="20.6382979 0 45.9574468 0.85106383 40.8510638 5.53191489 40.4255319 12.7659574 45.106383 20 55.7446809 20 59.1489362 13.6170213 59.5744681 4.68085106 55.7446809 1.27659574" style="cursor: pointer; fill: rgb(182, 189, 195);"></polygon>
  <polygon className="trapezius trapezius-left" points="44.6808511 21.7021277 47.6595745 21.7021277 47.2340426 38.2978723 47.6595745 64.6808511 38.2978723 53.1914894 35.3191489 40.8510638 31.0638298 36.5957447 39.1489362 33.1914894 43.8297872 27.2340426" style="cursor: pointer; fill: rgb(182, 189, 195);"></polygon>
  <polygon className="trapezius trapezius-right" points="52.3404255 21.7021277 55.7446809 21.7021277 56.5957447 27.2340426 60.8510638 32.7659574 68.9361702 36.5957447 64.6808511 40.4255319 61.7021277 53.1914894 52.3404255 64.6808511 53.1914894 38.2978723" style="cursor: pointer; fill: rgb(182, 189, 195);"></polygon>
  <polygon className="back-deltoids front-deltoids back-deltoids-left front-deltoids-left" points="29.3617021 37.0212766 22.9787234 39.1489362 17.4468085 44.2553191 18.2978723 53.6170213 24.2553191 49.3617021 27.2340426 46.3829787" style="cursor: pointer; fill: rgb(182, 189, 195);"></polygon>
  <polygon className="back-deltoids front-deltoids back-deltoids-right front-deltoids-right" points="71.0638298 37.0212766 78.2978723 39.5744681 82.5531915 44.6808511 81.7021277 53.6170213 74.893617 48.9361702 72.3404255 45.106383" style="cursor: pointer; fill: rgb(182, 189, 195);"></polygon>
  <polygon className="upper-back upper-back-left" points="31.0638298 38.7234043 28.0851064 48.9361702 28.5106383 55.3191489 34.0425532 75.3191489 47.2340426 71.0638298 47.2340426 66.3829787 36.5957447 54.0425532 33.6170213 41.2765957" style="cursor: pointer; fill: rgb(182, 189, 195);"></polygon>
  <polygon className="upper-back upper-back-right" points="68.9361702 38.7234043 71.9148936 49.3617021 71.4893617 56.1702128 65.9574468 75.3191489 52.7659574 71.0638298 52.7659574 66.3829787 63.4042553 54.4680851 66.3829787 41.7021277" style="cursor: pointer; fill: rgb(182, 189, 195);"></polygon>
  <polygon className="triceps triceps-left" points="26.8085106 49.787234 17.8723404 55.7446809 14.4680851 72.3404255 16.5957447 81.7021277 21.7021277 63.8297872 26.8085106 55.7446809" style="cursor: pointer; fill: rgb(182, 189, 195);"></polygon>
  <polygon className="triceps triceps-right" points="73.6170213 50.212766 82.1276596 55.7446809 85.9574468 73.1914894 83.4042553 82.1276596 77.8723404 62.9787234 73.1914894 55.7446809" style="cursor: pointer; fill: rgb(182, 189, 195);"></polygon>
  <polygon className="triceps triceps-left" points="26.8085106 58.2978723 26.8085106 68.5106383 22.9787234 75.3191489 19.1489362 77.4468085 22.5531915 65.5319149" style="cursor: pointer; fill: rgb(182, 189, 195);"></polygon>
  <polygon className="triceps triceps-right" points="72.7659574 58.2978723 77.0212766 64.6808511 80.4255319 77.4468085 76.5957447 75.3191489 72.7659574 68.9361702" style="cursor: pointer; fill: rgb(182, 189, 195);"></polygon>
  <polygon className="lower-back lower-back-left" points="47.6595745 72.7659574 34.4680851 77.0212766 35.3191489 83.4042553 49.3617021 102.12766 46.8085106 82.9787234" style="cursor: pointer; fill: rgb(182, 189, 195);"></polygon>
  <polygon className="lower-back lower-back-right" points="52.3404255 72.7659574 65.5319149 77.0212766 64.6808511 83.4042553 50.6382979 102.12766 53.1914894 83.8297872" style="cursor: pointer; fill: rgb(182, 189, 195);"></polygon>
  <polygon className="forearm forearm-right" points="86.3829787 75.7446809 91.0638298 83.4042553 93.1914894 94.0425532 100 106.382979 96.1702128 104.255319 88.0851064 89.3617021 84.2553191 83.8297872" style="cursor: pointer; fill: rgb(182, 189, 195);"></polygon>
  <polygon className="forearm forearm-left" points="13.6170213 75.7446809 8.93617021 83.8297872 6.80851064 93.6170213 0 106.382979 3.82978723 104.255319 12.3404255 88.5106383 15.7446809 82.9787234" style="cursor: pointer; fill: rgb(182, 189, 195);"></polygon>
  <polygon className="forearm forearm-right" points="81.2765957 79.5744681 77.4468085 77.8723404 79.1489362 84.6808511 91.0638298 103.829787 93.1914894 108.93617 94.4680851 104.680851" style="cursor: pointer; fill: rgb(182, 189, 195);"></polygon>
  <polygon className="forearm forearm-left" points="18.7234043 79.5744681 22.1276596 77.8723404 20.8510638 84.2553191 9.36170213 102.978723 6.80851064 108.510638 5.10638298 104.680851" style="cursor: pointer; fill: rgb(182, 189, 195);"></polygon>
  <polygon className="gluteal gluteal-left" points="44.6808511 99.5744681 30.212766 108.510638 29.787234 118.723404 31.4893617 125.957447 47.2340426 121.276596 49.3617021 114.893617" style="cursor: pointer; fill: rgb(182, 189, 195);"></polygon>
  <polygon className="gluteal gluteal-right" points="55.3191489 99.1489362 51.0638298 114.468085 52.3404255 120.851064 68.0851064 125.957447 69.787234 119.148936 69.3617021 108.510638" style="cursor: pointer; fill: rgb(182, 189, 195);"></polygon>
  <polygon className="adductor adductor-left" points="48.0851064 122.978723 44.6808511 122.978723 41.2765957 125.531915 45.106383 144.255319 48.5106383 135.744681 48.9361702 129.361702" style="cursor: pointer; fill: rgb(182, 189, 195);"></polygon>
  <polygon className="adductor adductor-right" points="51.9148936 122.553191 55.7446809 123.404255 59.1489362 125.957447 54.893617 144.255319 51.9148936 136.170213 51.0638298 129.361702" style="cursor: pointer; fill: rgb(182, 189, 195);"></polygon>
  <polygon className="hamstring hamstring-left" points="28.9361702 122.12766 31.0638298 129.361702 36.5957447 125.957447 35.3191489 135.319149 34.4680851 150.212766 29.3617021 158.297872 28.9361702 146.808511 27.6595745 141.276596 27.2340426 131.489362" style="cursor: pointer; fill: rgb(182, 189, 195);"></polygon>
  <polygon className="hamstring hamstring-right" points="71.4893617 121.702128 69.3617021 128.93617 63.8297872 125.957447 65.5319149 136.595745 66.3829787 150.212766 71.0638298 158.297872 71.4893617 147.659574 72.7659574 142.12766 73.6170213 131.914894" style="cursor: pointer; fill: rgb(182, 189, 195);"></polygon>
  <polygon className="hamstring hamstring-left" points="38.7234043 125.531915 44.2553191 145.957447 40.4255319 166.808511 36.1702128 152.765957 37.0212766 135.319149" style="cursor: pointer; fill: rgb(182, 189, 195);"></polygon>
  <polygon className="hamstring hamstring-right" points="61.7021277 125.531915 63.4042553 136.170213 64.2553191 153.191489 60 166.808511 56.1702128 146.382979" style="cursor: pointer; fill: rgb(182, 189, 195);"></polygon>
  <polygon className="knees knees-left" points="34.4680851 153.191489 31.0638298 159.148936 33.6170213 166.382979 37.4468085 162.553191" style="cursor: pointer; fill: rgb(182, 189, 195);"></polygon>
  <polygon className="knees knees-right" points="66.3829787 153.617021 62.9787234 162.978723 66.8085106 166.382979 69.3617021 159.148936" style="cursor: pointer; fill: rgb(182, 189, 195);"></polygon>
  <polygon className="calves calves-left" points="29.3617021 160.425532 28.5106383 167.234043 24.6808511 179.574468 23.8297872 192.765957 25.5319149 197.021277 28.5106383 193.191489 29.787234 180 31.9148936 171.06383 31.9148936 166.808511" style="cursor: pointer; fill: rgb(182, 189, 195);"></polygon>
  <polygon className="calves calves-left" points="37.4468085 165.106383 35.3191489 167.659574 33.1914894 171.914894 31.0638298 180.425532 30.212766 191.914894 34.0425532 200 38.7234043 190.638298 39.1489362 168.93617" style="cursor: pointer; fill: rgb(182, 189, 195);"></polygon>
  <polygon className="calves calves-right" points="62.9787234 165.106383 61.2765957 168.510638 61.7021277 190.638298 66.3829787 199.574468 70.6382979 191.914894 68.9361702 179.574468 66.8085106 170.212766" style="cursor: pointer; fill: rgb(182, 189, 195);"></polygon>
  <polygon className="calves calves-right" points="70.6382979 160.425532 72.3404255 168.510638 75.7446809 179.148936 76.5957447 192.765957 74.4680851 196.595745 72.3404255 193.617021 70.6382979 179.574468 68.0851064 168.085106" style="cursor: pointer; fill: rgb(182, 189, 195);"></polygon>
  <polygon points="28.5106383 195.744681 30.212766 195.744681 33.6170213 201.702128 30.6382979 220 28.5106383 213.617021 26.8085106 198.297872" style="cursor: pointer; fill: rgb(182, 189, 195);"></polygon>
  <polygon points="69.787234 195.744681 71.9148936 195.744681 73.6170213 198.297872 71.9148936 213.191489 70.212766 219.574468 67.2340426 202.12766" style="cursor: pointer; fill: rgb(182, 189, 195);"></polygon>
</svg>