<svg width="561" height="579" viewBox="0 0 561 579" fill="none" xmlns="http://www.w3.org/2000/svg">
<path d="M5.03018 163L19.9698 163C21.3039 163 22.5834 163.263 23.5267 163.732C24.47 164.201 25 164.837 25 165.5C25 166.163 24.47 166.799 23.5267 167.268C22.5834 167.737 21.3039 168 19.9698 168L5.03018 168C3.69609 168 2.41666 167.737 1.47332 167.268C0.529978 166.799 -2.28549e-07 166.163 -2.52793e-07 165.5C-2.77037e-07 164.837 0.529977 164.201 1.47332 163.732C2.41666 163.263 3.69609 163 5.03018 163Z" fill="#FE5000"/>
<path d="M10 173.171L10 158.829C10 157.548 10.2634 156.32 10.7322 155.414C11.2011 154.509 11.837 154 12.5 154C13.163 154 13.7989 154.509 14.2678 155.414C14.7366 156.32 15 157.548 15 158.829L15 173.171C15 174.452 14.7366 175.68 14.2678 176.586C13.7989 177.491 13.163 178 12.5 178C11.837 178 11.2011 177.491 10.7322 176.586C10.2634 175.68 10 174.452 10 173.171Z" fill="#FE5000"/>
<path d="M5.03018 163L19.9698 163C21.3039 163 22.5834 163.263 23.5267 163.732C24.47 164.201 25 164.837 25 165.5C25 166.163 24.47 166.799 23.5267 167.268C22.5834 167.737 21.3039 168 19.9698 168L5.03018 168C3.69609 168 2.41666 167.737 1.47332 167.268C0.529978 166.799 -2.28549e-07 166.163 -2.52793e-07 165.5C-2.77037e-07 164.837 0.529977 164.201 1.47332 163.732C2.41666 163.263 3.69609 163 5.03018 163Z" fill="#FE5000"/>
<path d="M10 173.171L10 158.829C10 157.548 10.2634 156.32 10.7322 155.414C11.2011 154.509 11.837 154 12.5 154C13.163 154 13.7989 154.509 14.2678 155.414C14.7366 156.32 15 157.548 15 158.829L15 173.171C15 174.452 14.7366 175.68 14.2678 176.586C13.7989 177.491 13.163 178 12.5 178C11.837 178 11.2011 177.491 10.7322 176.586C10.2634 175.68 10 174.452 10 173.171Z" fill="#FE5000"/>
<path d="M541.03 172L555.97 172C557.304 172 558.583 172.263 559.527 172.732C560.47 173.201 561 173.837 561 174.5C561 175.163 560.47 175.799 559.527 176.268C558.583 176.737 557.304 177 555.97 177L541.03 177C539.696 177 538.417 176.737 537.473 176.268C536.53 175.799 536 175.163 536 174.5C536 173.837 536.53 173.201 537.473 172.732C538.417 172.263 539.696 172 541.03 172Z" fill="#FE5000"/>
<path d="M546 182.171L546 167.829C546 166.548 546.263 165.32 546.732 164.414C547.201 163.509 547.837 163 548.5 163C549.163 163 549.799 163.509 550.268 164.414C550.737 165.32 551 166.548 551 167.829L551 182.171C551 183.452 550.737 184.68 550.268 185.586C549.799 186.491 549.163 187 548.5 187C547.837 187 547.201 186.491 546.732 185.586C546.263 184.68 546 183.452 546 182.171Z" fill="#FE5000"/>
<path d="M541.03 172L555.97 172C557.304 172 558.583 172.263 559.527 172.732C560.47 173.201 561 173.837 561 174.5C561 175.163 560.47 175.799 559.527 176.268C558.583 176.737 557.304 177 555.97 177L541.03 177C539.696 177 538.417 176.737 537.473 176.268C536.53 175.799 536 175.163 536 174.5C536 173.837 536.53 173.201 537.473 172.732C538.417 172.263 539.696 172 541.03 172Z" fill="#FE5000"/>
<path d="M546 182.171L546 167.829C546 166.548 546.263 165.32 546.732 164.414C547.201 163.509 547.837 163 548.5 163C549.163 163 549.799 163.509 550.268 164.414C550.737 165.32 551 166.548 551 167.829L551 182.171C551 183.452 550.737 184.68 550.268 185.586C549.799 186.491 549.163 187 548.5 187C547.837 187 547.201 186.491 546.732 185.586C546.263 184.68 546 183.452 546 182.171Z" fill="#FE5000"/>
<path d="M189.03 9L203.97 9C205.304 9 206.583 9.26339 207.527 9.73223C208.47 10.2011 209 10.837 209 11.5C209 12.163 208.47 12.7989 207.527 13.2678C206.583 13.7366 205.304 14 203.97 14L189.03 14C187.696 14 186.417 13.7366 185.473 13.2678C184.53 12.7989 184 12.163 184 11.5C184 10.837 184.53 10.2011 185.473 9.73223C186.417 9.26339 187.696 9 189.03 9Z" fill="#FE5000"/>
<path d="M194 19.171L194 4.82897C194 3.54825 194.263 2.31998 194.732 1.41437C195.201 0.508762 195.837 1.09121e-07 196.5 8.62467e-08C197.163 6.33726e-08 197.799 0.508762 198.268 1.41437C198.737 2.31998 199 3.54825 199 4.82897L199 19.171C199 20.4518 198.737 21.68 198.268 22.5856C197.799 23.4912 197.163 24 196.5 24C195.837 24 195.201 23.4912 194.732 22.5856C194.263 21.68 194 20.4518 194 19.171Z" fill="#FE5000"/>
<path d="M189.03 9L203.97 9C205.304 9 206.583 9.26339 207.527 9.73223C208.47 10.2011 209 10.837 209 11.5C209 12.163 208.47 12.7989 207.527 13.2678C206.583 13.7366 205.304 14 203.97 14L189.03 14C187.696 14 186.417 13.7366 185.473 13.2678C184.53 12.7989 184 12.163 184 11.5C184 10.837 184.53 10.2011 185.473 9.73223C186.417 9.26339 187.696 9 189.03 9Z" fill="#FE5000"/>
<path d="M194 19.171L194 4.82897C194 3.54825 194.263 2.31998 194.732 1.41437C195.201 0.508762 195.837 1.09121e-07 196.5 8.62467e-08C197.163 6.33726e-08 197.799 0.508762 198.268 1.41437C198.737 2.31998 199 3.54825 199 4.82897L199 19.171C199 20.4518 198.737 21.68 198.268 22.5856C197.799 23.4912 197.163 24 196.5 24C195.837 24 195.201 23.4912 194.732 22.5856C194.263 21.68 194 20.4518 194 19.171Z" fill="#FE5000"/>
<path d="M387.034 40.7761L374.811 57.2947C373.719 58.7698 372.373 59.9625 371.067 60.6104C369.761 61.2582 368.603 61.3083 367.848 60.7494C367.092 60.1905 366.802 59.0686 367.039 57.6304C367.277 56.1922 368.024 54.5555 369.116 53.0804L381.339 36.5618C382.43 35.0867 383.777 33.8941 385.083 33.2462C386.389 32.5983 387.547 32.5483 388.302 33.1072C389.057 33.666 389.348 34.788 389.11 36.2262C388.872 37.6644 388.125 39.301 387.034 40.7761Z" fill="#FE5000"/>
<path d="M247.5 24C243.364 24 240 27.3644 240 31.5C240 35.6356 243.364 39 247.5 39C251.636 39 255 35.6356 255 31.5C255 27.3644 251.636 24 247.5 24Z" fill="white"/>
<g clip-path="url(#clip0)">
<path d="M280.917 503.929C293.108 503.929 303.026 494.011 303.026 481.82V447.461C317.794 439.434 327.085 424.038 327.085 406.927C327.085 394.342 322.11 382.58 313.081 373.808C304.056 365.04 292.184 360.421 279.549 360.779C255.603 361.473 235.947 380.752 234.804 404.67C233.954 422.475 243.436 439.06 258.808 447.453V481.82C258.808 494.011 268.726 503.929 280.917 503.929ZM249.974 405.395C250.742 389.356 263.927 376.428 279.989 375.96C280.301 375.953 280.609 375.949 280.921 375.949C289.034 375.949 296.668 379.036 302.5 384.705C308.558 390.588 311.896 398.483 311.896 406.927C311.896 419.59 304.309 430.857 292.57 435.629C289.709 436.795 287.837 439.574 287.837 442.666V481.82C287.837 485.637 284.734 488.744 280.917 488.744C277.1 488.744 273.997 485.637 273.997 481.82V442.666C273.997 439.574 272.126 436.795 269.26 435.629C257.097 430.685 249.346 418.533 249.974 405.395Z" fill="#FE5000"/>
<path d="M460.375 430.865C464.57 430.865 467.969 427.465 467.969 423.27V344.927C467.969 319.325 453.696 296.998 432.691 285.473V218.776C432.691 178.292 416.886 140.195 388.192 111.501C359.482 82.8031 321.389 67.002 280.917 67.002C238.2 67.002 197.206 85.2124 168.442 116.967C165.627 120.074 165.865 124.877 168.972 127.696C172.079 130.511 176.882 130.273 179.701 127.166C205.588 98.5808 242.48 82.191 280.917 82.191C317.33 82.191 351.615 96.4132 377.451 122.242C403.279 148.066 417.502 182.351 417.502 218.776V279.403C411.973 277.945 406.176 277.158 400.196 277.158H387.127V218.776C387.127 160.21 339.482 112.569 280.921 112.569C222.356 112.569 174.711 160.21 174.711 218.776V277.158H161.639C155.658 277.158 149.857 277.945 144.332 279.403V218.776C144.332 194.737 150.687 171.095 162.715 150.405C164.82 146.78 163.592 142.132 159.966 140.023C156.34 137.918 151.689 139.146 149.58 142.772C136.212 165.778 129.143 192.058 129.143 218.776V285.473C108.138 296.998 93.8647 319.325 93.8647 344.927V510.229C93.8647 547.601 124.266 578.003 161.639 578.003H400.196C437.564 578.003 467.969 547.601 467.969 510.229V453.652C467.969 449.457 464.57 446.058 460.375 446.058C456.18 446.058 452.78 449.457 452.78 453.652V510.229C452.78 539.223 429.19 562.814 400.196 562.814H161.639C132.644 562.814 109.054 539.223 109.054 510.229V344.927C109.054 315.933 132.644 292.347 161.639 292.347H400.196C429.19 292.347 452.78 315.933 452.78 344.927V423.274C452.78 427.465 456.18 430.865 460.375 430.865V430.865ZM189.9 218.776C189.9 168.585 230.73 127.754 280.921 127.754C331.108 127.754 371.938 168.585 371.938 218.776V277.158H189.9V218.776Z" fill="#757575"/>
<path d="M71.5 188C67.9158 188 65 190.916 65 194.5C65 198.084 67.9158 201 71.5 201C75.0842 201 78 198.084 78 194.5C78 190.916 75.0842 188 71.5 188Z" fill="#FE5000"/>
<path d="M473 178C470.243 178 468 180.243 468 183C468 185.757 470.243 188 473 188C475.757 188 478 185.757 478 183C478 180.243 475.757 178 473 178Z" fill="white"/>
<path d="M52 105C49.2429 105 47 107.243 47 110C47 112.757 49.2429 115 52 115C54.7571 115 57 112.757 57 110C57 107.243 54.7571 105 52 105Z" fill="white"/>
<path d="M99.0302 141L113.97 141C115.304 141 116.583 141.263 117.527 141.732C118.47 142.201 119 142.837 119 143.5C119 144.163 118.47 144.799 117.527 145.268C116.583 145.737 115.304 146 113.97 146L99.0302 146C97.6961 146 96.4167 145.737 95.4733 145.268C94.53 144.799 94 144.163 94 143.5C94 142.837 94.53 142.201 95.4733 141.732C96.4167 141.263 97.6961 141 99.0302 141Z" fill="white"/>
<path d="M104 151.171L104 136.829C104 135.548 104.263 134.32 104.732 133.414C105.201 132.509 105.837 132 106.5 132C107.163 132 107.799 132.509 108.268 133.414C108.737 134.32 109 135.548 109 136.829L109 151.171C109 152.452 108.737 153.68 108.268 154.586C107.799 155.491 107.163 156 106.5 156C105.837 156 105.201 155.491 104.732 154.586C104.263 153.68 104 152.452 104 151.171Z" fill="white"/>
<path d="M427.03 100L441.97 100C443.304 100 444.583 100.263 445.527 100.732C446.47 101.201 447 101.837 447 102.5C447 103.163 446.47 103.799 445.527 104.268C444.583 104.737 443.304 105 441.97 105L427.03 105C425.696 105 424.417 104.737 423.473 104.268C422.53 103.799 422 103.163 422 102.5C422 101.837 422.53 101.201 423.473 100.732C424.417 100.263 425.696 100 427.03 100Z" fill="white"/>
<path d="M432 110.171L432 95.829C432 94.5482 432.263 93.32 432.732 92.4144C433.201 91.5088 433.837 91 434.5 91C435.163 91 435.799 91.5088 436.268 92.4144C436.737 93.32 437 94.5482 437 95.829L437 110.171C437 111.452 436.737 112.68 436.268 113.586C435.799 114.491 435.163 115 434.5 115C433.837 115 433.201 114.491 432.732 113.586C432.263 112.68 432 111.452 432 110.171Z" fill="white"/>
<path d="M479.5 256C475.916 256 473 258.916 473 262.5C473 266.084 475.916 269 479.5 269C483.084 269 486 266.084 486 262.5C486 258.916 483.084 256 479.5 256Z" fill="#FE5000"/>
</g>
<path d="M161.608 66.8888L152.924 48.2649C152.149 46.6018 151.743 44.8491 151.797 43.3924C151.85 41.9356 152.359 40.8942 153.211 40.4971C154.062 40.1001 155.187 40.3799 156.337 41.2751C157.488 42.1703 158.57 43.6076 159.345 45.2707L168.03 63.8946C168.805 65.5576 169.211 67.3103 169.157 68.7671C169.103 70.2238 168.595 71.2653 167.743 71.6623C166.892 72.0594 165.767 71.7795 164.616 70.8843C163.466 69.9891 162.384 68.5519 161.608 66.8888Z" fill="#FE5000"/>
<path d="M523.034 60.7761L510.811 77.2947C509.719 78.7698 508.373 79.9625 507.067 80.6104C505.761 81.2582 504.603 81.3083 503.848 80.7494C503.092 80.1905 502.802 79.0686 503.039 77.6304C503.277 76.1922 504.024 74.5555 505.116 73.0804L517.339 56.5618C518.43 55.0867 519.777 53.8941 521.083 53.2462C522.389 52.5983 523.547 52.5483 524.302 53.1072C525.057 53.666 525.348 54.788 525.11 56.2262C524.872 57.6644 524.125 59.301 523.034 60.7761Z" fill="white"/>
<path d="M88.9009 43.8495L103.558 58.2526C104.866 59.5388 105.86 61.0385 106.32 62.4218C106.78 63.8051 106.668 64.9587 106.01 65.6289C105.351 66.299 104.2 66.4307 102.808 65.9951C101.417 65.5595 99.9005 64.5922 98.5917 63.306L83.935 48.9029C82.6262 47.6167 81.6325 46.117 81.1727 44.7337C80.7129 43.3504 80.8245 42.1968 81.483 41.5267C82.1415 40.8566 83.293 40.7248 84.6842 41.1604C86.0753 41.5961 87.5921 42.5633 88.9009 43.8495Z" fill="white"/>
<defs>
<clipPath id="clip0">
<rect width="511" height="511" fill="white" transform="translate(25 68)"/>
</clipPath>
</defs>
</svg>
