<svg width="349" height="87" viewBox="0 0 349 87" fill="none" xmlns="http://www.w3.org/2000/svg">
<path d="M342.412 29.5081C342.009 29.2363 341.552 29.042 341.068 28.9362C340.584 28.8304 340.083 28.8153 339.593 28.8918C339.103 28.9683 338.634 29.1348 338.213 29.3818C337.791 29.6288 337.427 29.9513 337.139 30.3309L316.426 57.4832C316.328 57.6067 316.204 57.7107 316.062 57.7894C315.92 57.868 315.763 57.9197 315.6 57.9416C315.437 57.9634 315.27 57.9549 315.111 57.9166C314.951 57.8783 314.801 57.8109 314.669 57.7183L305.38 50.9008C304.419 50.1943 303.312 49.683 302.128 49.3997C300.945 49.1163 299.711 49.0671 298.507 49.2551C297.302 49.4431 296.152 49.8643 295.131 50.4917C294.109 51.1191 293.239 51.939 292.575 52.899L282.03 67.9445C281.932 68.0856 281.801 68.2052 281.649 68.2951C281.496 68.385 281.325 68.443 281.146 68.4653C280.968 68.4876 280.786 68.4737 280.614 68.4244C280.441 68.375 280.282 68.2916 280.147 68.1796L274.373 62.7726C273.451 61.9082 272.334 61.247 271.105 60.8369C269.876 60.4269 268.564 60.2784 267.266 60.4023C265.968 60.5261 264.715 60.9191 263.599 61.5527C262.484 62.1864 261.533 63.0448 260.815 64.0656L248.513 81.6969C248.028 82.4756 247.88 83.3987 248.099 84.2765C248.318 85.1543 248.888 85.9202 249.692 86.4168C250.495 86.9134 251.471 87.1029 252.419 86.9465C253.368 86.7901 254.216 86.2996 254.79 85.5759L267.092 67.9445C267.191 67.8033 267.321 67.6837 267.473 67.5939C267.626 67.504 267.797 67.4459 267.976 67.4236C268.155 67.4013 268.336 67.4153 268.509 67.4646C268.681 67.5139 268.84 67.5974 268.975 67.7094L274.749 73.1164C275.672 74.0026 276.796 74.6825 278.039 75.1054C279.281 75.5284 280.609 75.6835 281.924 75.5593C283.239 75.435 284.507 75.0345 285.634 74.3877C286.761 73.7409 287.718 72.8643 288.433 71.8234L298.977 56.7779C299.081 56.6468 299.213 56.5372 299.364 56.4563C299.515 56.3753 299.683 56.3247 299.856 56.3078C300.032 56.2778 300.212 56.2833 300.385 56.3239C300.558 56.3644 300.72 56.4391 300.86 56.5429L310.15 63.3603C311.084 64.0396 312.154 64.5355 313.297 64.8183C314.44 65.1011 315.633 65.1649 316.803 65.0059C317.984 64.8488 319.118 64.4649 320.133 63.8784C321.148 63.2918 322.023 62.5152 322.703 61.5972L343.291 34.4449C343.581 34.0673 343.788 33.6397 343.901 33.1866C344.014 32.7336 344.03 32.2641 343.949 31.8052C343.867 31.3463 343.689 30.9071 343.425 30.5128C343.162 30.1186 342.817 29.7771 342.412 29.5081V29.5081Z" fill="#FE5000"/>
<path d="M36.0119 42V7.92H50.3159C51.8519 7.92 53.2599 8.24 54.5399 8.88C55.8519 9.52 56.9719 10.368 57.8999 11.424C58.8599 12.48 59.5959 13.664 60.1079 14.976C60.6199 16.288 60.8759 17.632 60.8759 19.008C60.8759 20.928 60.4439 22.736 59.5799 24.432C58.7159 26.128 57.5159 27.504 55.9799 28.56C54.4439 29.616 52.6519 30.144 50.6039 30.144H41.3879V42H36.0119ZM41.3879 25.392H50.2679C51.7719 25.392 53.0039 24.784 53.9639 23.568C54.9239 22.352 55.4039 20.832 55.4039 19.008C55.4039 17.76 55.1479 16.672 54.6359 15.744C54.1239 14.784 53.4519 14.032 52.6199 13.488C51.8199 12.944 50.9399 12.672 49.9799 12.672H41.3879V25.392ZM79.3581 21.456C77.3101 21.52 75.4861 22 73.8861 22.896C72.3181 23.76 71.1981 25.008 70.5261 26.64V42H65.2461V16.896H70.1421V22.512C71.0061 20.784 72.1421 19.408 73.5501 18.384C74.9581 17.328 76.4461 16.752 78.0141 16.656C78.3021 16.656 78.5581 16.656 78.7821 16.656C79.0061 16.656 79.1981 16.672 79.3581 16.704V21.456ZM94.0574 42.48C91.4334 42.48 89.1454 41.888 87.1934 40.704C85.2734 39.488 83.7854 37.904 82.7294 35.952C81.6734 33.968 81.1454 31.808 81.1454 29.472C81.1454 27.136 81.6734 24.992 82.7294 23.04C83.8174 21.056 85.3214 19.472 87.2414 18.288C89.1934 17.072 91.4654 16.464 94.0574 16.464C96.6494 16.464 98.9054 17.072 100.825 18.288C102.777 19.472 104.281 21.056 105.337 23.04C106.425 24.992 106.969 27.136 106.969 29.472C106.969 31.808 106.441 33.968 105.385 35.952C104.329 37.904 102.825 39.488 100.873 40.704C98.9534 41.888 96.6814 42.48 94.0574 42.48ZM86.5694 29.52C86.5694 31.12 86.9054 32.56 87.5774 33.84C88.2494 35.12 89.1454 36.128 90.2654 36.864C91.3854 37.6 92.6494 37.968 94.0574 37.968C95.4334 37.968 96.6814 37.6 97.8014 36.864C98.9534 36.096 99.8654 35.072 100.537 33.792C101.209 32.512 101.545 31.072 101.545 29.472C101.545 27.872 101.209 26.432 100.537 25.152C99.8654 23.872 98.9534 22.864 97.8014 22.128C96.6814 21.36 95.4334 20.976 94.0574 20.976C92.6814 20.976 91.4174 21.36 90.2654 22.128C89.1454 22.864 88.2494 23.888 87.5774 25.2C86.9054 26.48 86.5694 27.92 86.5694 29.52ZM121.588 42.24C119.316 42.24 117.316 41.648 115.588 40.464C113.892 39.28 112.548 37.728 111.556 35.808C110.596 33.856 110.116 31.744 110.116 29.472C110.116 27.104 110.612 24.928 111.604 22.944C112.596 20.96 113.956 19.392 115.684 18.24C117.444 17.056 119.476 16.464 121.78 16.464C123.796 16.464 125.556 16.944 127.06 17.904C128.596 18.864 129.86 20.112 130.852 21.648V16.896H135.508V41.28C135.508 43.712 134.916 45.776 133.732 47.472C132.58 49.168 130.996 50.464 128.98 51.36C126.964 52.256 124.692 52.704 122.164 52.704C119.38 52.704 117.06 52.224 115.204 51.264C113.38 50.304 111.844 48.992 110.596 47.328L113.572 44.544C114.532 45.888 115.764 46.912 117.268 47.616C118.804 48.32 120.436 48.672 122.164 48.672C123.604 48.672 124.932 48.4 126.148 47.856C127.396 47.344 128.388 46.544 129.124 45.456C129.86 44.368 130.228 42.976 130.228 41.28V37.44C129.332 38.944 128.1 40.128 126.532 40.992C124.964 41.824 123.316 42.24 121.588 42.24ZM123.316 37.968C124.372 37.968 125.38 37.744 126.34 37.296C127.3 36.816 128.116 36.192 128.788 35.424C129.492 34.656 129.972 33.84 130.228 32.976V26.4C129.588 24.8 128.58 23.504 127.204 22.512C125.86 21.488 124.436 20.976 122.932 20.976C121.396 20.976 120.068 21.392 118.948 22.224C117.86 23.056 117.012 24.144 116.404 25.488C115.796 26.8 115.492 28.176 115.492 29.616C115.492 31.152 115.828 32.56 116.5 33.84C117.204 35.088 118.148 36.096 119.332 36.864C120.516 37.6 121.844 37.968 123.316 37.968ZM155.952 21.456C153.904 21.52 152.08 22 150.48 22.896C148.912 23.76 147.792 25.008 147.12 26.64V42H141.84V16.896H146.736V22.512C147.6 20.784 148.736 19.408 150.144 18.384C151.552 17.328 153.04 16.752 154.608 16.656C154.896 16.656 155.152 16.656 155.376 16.656C155.6 16.656 155.792 16.672 155.952 16.704V21.456ZM170.747 42.48C168.155 42.48 165.883 41.888 163.931 40.704C161.979 39.52 160.459 37.952 159.371 36C158.283 34.016 157.739 31.856 157.739 29.52C157.739 27.152 158.283 24.976 159.371 22.992C160.459 21.008 161.979 19.424 163.931 18.24C165.883 17.056 168.171 16.464 170.795 16.464C173.419 16.464 175.691 17.072 177.611 18.288C179.531 19.472 181.003 21.04 182.027 22.992C183.083 24.944 183.611 27.04 183.611 29.28C183.611 30.08 183.563 30.72 183.467 31.2H163.355C163.451 32.672 163.851 33.968 164.555 35.088C165.291 36.176 166.203 37.04 167.291 37.68C168.411 38.288 169.627 38.592 170.939 38.592C172.347 38.592 173.675 38.24 174.923 37.536C176.171 36.832 177.035 35.904 177.515 34.752L182.027 36.048C181.163 37.936 179.723 39.488 177.707 40.704C175.723 41.888 173.403 42.48 170.747 42.48ZM163.211 27.696H178.379C178.251 26.256 177.835 24.992 177.131 23.904C176.427 22.784 175.515 21.92 174.395 21.312C173.307 20.672 172.091 20.352 170.747 20.352C169.435 20.352 168.219 20.672 167.099 21.312C166.011 21.92 165.115 22.784 164.411 23.904C163.707 24.992 163.307 26.256 163.211 27.696ZM196.846 42.48C194.734 42.48 192.734 42.128 190.846 41.424C188.958 40.72 187.342 39.696 185.998 38.352L187.966 34.8C189.406 36.08 190.846 37.008 192.286 37.584C193.726 38.16 195.182 38.448 196.654 38.448C198.126 38.448 199.326 38.176 200.254 37.632C201.182 37.056 201.646 36.224 201.646 35.136C201.646 34.368 201.406 33.776 200.926 33.36C200.446 32.944 199.742 32.608 198.814 32.352C197.918 32.096 196.83 31.776 195.55 31.392C193.758 30.848 192.254 30.288 191.038 29.712C189.822 29.104 188.91 28.368 188.302 27.504C187.694 26.64 187.39 25.536 187.39 24.192C187.39 21.76 188.302 19.872 190.126 18.528C191.95 17.152 194.334 16.464 197.278 16.464C199.102 16.464 200.782 16.752 202.318 17.328C203.886 17.872 205.262 18.736 206.446 19.92L204.19 23.424C202.014 21.44 199.614 20.448 196.99 20.448C195.838 20.448 194.766 20.672 193.774 21.12C192.814 21.568 192.334 22.4 192.334 23.616C192.334 24.64 192.766 25.376 193.63 25.824C194.494 26.272 195.774 26.752 197.47 27.264C199.39 27.84 201.038 28.416 202.414 28.992C203.822 29.536 204.894 30.256 205.63 31.152C206.398 32.016 206.782 33.216 206.782 34.752C206.782 37.184 205.87 39.088 204.046 40.464C202.222 41.808 199.822 42.48 196.846 42.48ZM220.424 42.48C218.312 42.48 216.312 42.128 214.424 41.424C212.536 40.72 210.92 39.696 209.576 38.352L211.544 34.8C212.984 36.08 214.424 37.008 215.864 37.584C217.304 38.16 218.76 38.448 220.232 38.448C221.704 38.448 222.904 38.176 223.832 37.632C224.76 37.056 225.224 36.224 225.224 35.136C225.224 34.368 224.984 33.776 224.504 33.36C224.024 32.944 223.32 32.608 222.392 32.352C221.496 32.096 220.408 31.776 219.128 31.392C217.336 30.848 215.832 30.288 214.616 29.712C213.4 29.104 212.488 28.368 211.88 27.504C211.272 26.64 210.968 25.536 210.968 24.192C210.968 21.76 211.88 19.872 213.704 18.528C215.528 17.152 217.912 16.464 220.856 16.464C222.68 16.464 224.36 16.752 225.896 17.328C227.464 17.872 228.84 18.736 230.024 19.92L227.768 23.424C225.592 21.44 223.192 20.448 220.568 20.448C219.416 20.448 218.344 20.672 217.352 21.12C216.392 21.568 215.912 22.4 215.912 23.616C215.912 24.64 216.344 25.376 217.208 25.824C218.072 26.272 219.352 26.752 221.048 27.264C222.968 27.84 224.616 28.416 225.992 28.992C227.4 29.536 228.472 30.256 229.208 31.152C229.976 32.016 230.36 33.216 230.36 34.752C230.36 37.184 229.448 39.088 227.624 40.464C225.8 41.808 223.4 42.48 220.424 42.48ZM235.512 42V7.92H249.816C251.352 7.92 252.76 8.24 254.04 8.88C255.352 9.52 256.472 10.368 257.4 11.424C258.36 12.48 259.096 13.664 259.608 14.976C260.12 16.288 260.376 17.632 260.376 19.008C260.376 20.928 259.944 22.736 259.08 24.432C258.216 26.128 257.016 27.504 255.48 28.56C253.944 29.616 252.152 30.144 250.104 30.144H240.888V42H235.512ZM240.888 25.392H249.768C251.272 25.392 252.504 24.784 253.464 23.568C254.424 22.352 254.904 20.832 254.904 19.008C254.904 17.76 254.648 16.672 254.136 15.744C253.624 14.784 252.952 14.032 252.12 13.488C251.32 12.944 250.44 12.672 249.48 12.672H240.888V25.392ZM262.641 34.656C262.641 33.056 263.089 31.664 263.985 30.48C264.881 29.264 266.129 28.336 267.729 27.696C269.361 27.024 271.233 26.688 273.345 26.688C274.465 26.688 275.601 26.784 276.753 26.976C277.937 27.136 278.977 27.376 279.873 27.696V26.112C279.873 24.352 279.345 22.976 278.289 21.984C277.233 20.992 275.713 20.496 273.729 20.496C272.353 20.496 271.025 20.736 269.745 21.216C268.465 21.696 267.137 22.4 265.761 23.328L263.985 19.776C265.649 18.688 267.313 17.872 268.977 17.328C270.673 16.752 272.449 16.464 274.305 16.464C277.665 16.464 280.305 17.36 282.225 19.152C284.177 20.912 285.153 23.424 285.153 26.688V36.048C285.153 36.656 285.249 37.088 285.441 37.344C285.665 37.6 286.033 37.744 286.545 37.776V42C286.065 42.096 285.633 42.16 285.249 42.192C284.865 42.224 284.545 42.24 284.289 42.24C283.137 42.24 282.273 41.968 281.697 41.424C281.153 40.848 280.833 40.208 280.737 39.504L280.593 38.064C279.505 39.472 278.113 40.56 276.417 41.328C274.721 42.096 273.009 42.48 271.281 42.48C269.617 42.48 268.129 42.144 266.817 41.472C265.505 40.768 264.481 39.824 263.745 38.64C263.009 37.456 262.641 36.128 262.641 34.656ZM278.625 36.192C279.457 35.36 279.873 34.576 279.873 33.84V30.96C277.985 30.256 276.065 29.904 274.113 29.904C272.193 29.904 270.625 30.304 269.409 31.104C268.225 31.872 267.633 32.912 267.633 34.224C267.633 35.312 268.065 36.32 268.929 37.248C269.825 38.144 271.105 38.592 272.769 38.592C273.889 38.592 274.977 38.368 276.033 37.92C277.089 37.472 277.953 36.896 278.625 36.192ZM291.607 6.96H296.887V34.752C296.887 36.032 297.079 36.848 297.463 37.2C297.847 37.552 298.327 37.728 298.903 37.728C299.543 37.728 300.151 37.664 300.727 37.536C301.303 37.408 301.783 37.248 302.167 37.056L302.935 41.232C302.167 41.552 301.255 41.824 300.199 42.048C299.143 42.272 298.199 42.384 297.367 42.384C295.575 42.384 294.167 41.888 293.143 40.896C292.119 39.872 291.607 38.464 291.607 36.672V6.96Z" fill="white"/>
</svg>
