<svg id="Capa_1" enable-background="new 0 0 512 512" height="512" viewBox="0 0 512 512" width="512" xmlns="http://www.w3.org/2000/svg"><g><g><path d="m109.281 301.961c-36.613-.055-66.497 29.584-66.542 66.186v125.232c0 6.139 4.983 11.122 11.122 11.122h74.749l121.057-21.501 103.723 21.5 15-7.5 14.999 7.5h50.611l21-3.167c6.139 0 11-1.194 11-7.333l-1.815-122c.044-36.613-22.537-67.985-59.15-68.03l-24.257-1.987-16.778 13.35-18.859-13.35h-18.874c-9.776 0-28.267-4.874-28.267-14.65l10.562-17.124v-66.432h-104.657v80.5c0 9.776-7.93 17.706-17.706 17.706l-19.2-.005-17.666 10.022-20.723-10.034z" fill="#fed2a4"/><path d="m326.27 301.98h-30c-9.78 0-17.71-7.92-17.71-17.69v-80.51h30v80.51c0 9.77 7.93 17.69 17.71 17.69z" fill="#ffbd86"/><path d="m469.26 368.7v124.68c0 6.14-4.98 11.12-11.12 11.12h-30c6.14 0 11.12-4.98 11.12-11.12v-124.68c.04-36.61-29.58-66.67-66.2-66.72h30c36.62.05 66.24 30.11 66.2 66.72z" fill="#ffbd86"/><path d="m152.259 114.192-10.759 8.808c-8.63 0-13.17-5.655-19.238-.438-7.395 6.358-12.078 15.781-12.078 26.298 0 10.518 4.684 19.941 12.079 26.299 6.067 5.216 10.857 1.84 19.487 1.84l10.509 6.529-10.009-34.668z" fill="#fed2a4"/><path d="m262.333 281.667-6.333.666c-3.51 0-6.978 1.992-10.398 1.652-52.413-5.216-93.344-49.442-93.344-103.228v-69.515c0-6.015.512-11.91 1.494-17.644 1.794-10.471 18.565-17.449 23.248-26.598 2.943-5.751-7-14.149-3.077-19.215 16.941-21.879 42.436-36.801 71.47-39.749 3.487-.355 5.396.964 8.977.964l3.353.292c57.295 0 98.019 44.655 98.019 101.95v69.515c-2.352 54.91-36.113 100.91-93.409 100.91z" fill="#fed2a4"/><path d="m152.26 114.19v69.34h-7.41c-8.63 0-16.53-3.16-22.59-8.37v-52.6c6.06-5.21 13.96-8.37 22.59-8.37z" fill="#ffbd86"/><path d="m367.148 114.192h-7.407v69.336h7.407c19.147 0 34.668-15.521 34.668-34.668-.001-19.146-15.522-34.668-34.668-34.668z" fill="#ffbd86"/><path d="m383.389 301.983-10.329 87.017 10.329 115.5-14.999-13.167-15 13.167h-224.779v-202.528h38.248v65.129c-.1 119.915 178.171 120.138 178.283.222v-65.341h8.249l17.943 12.684z" fill="#fe646f"/><path d="m256 7.5c-5.095 0-10.102.374-15 1.083 50.186 7.269 88.742 50.458 88.742 102.659v69.515c0 52.201-38.556 95.389-88.742 102.659 4.898.71 9.905 1.083 15 1.083 57.295 0 103.742-46.447 103.742-103.742v-69.515c0-6.008-.511-11.897-1.491-17.626-1.63-9.525-14.212-16.916-18.251-25.366-3.248-6.795 2.439-14.874-2.147-20.753-18.984-24.343-48.591-39.997-81.853-39.997z" fill="#ffbd86"/><path d="m355.206 91.262-12.206-4.262-14.76 6.6h-174.48c2.94-17.18 10.1-32.92 20.39-46.1h133.7l15.15 4.333 13.642-2.543c10.29 13.18 15.624 24.791 18.564 41.972z" fill="#fe646f"/><g fill="#fd4755"><path d="m358.24 93.6h-30c-2.94-17.18-10.1-32.92-20.39-46.1h30c10.29 13.18 17.45 28.92 20.39 46.1z"/><path d="m353.39 301.98h30v202.52h-30z"/></g></g><path d="m403.064 294.483h-76.796c-5.628 0-10.206-4.573-10.206-10.195v-9.934c28.049-18.062 47.488-48.38 50.702-83.325h.384c23.251 0 42.168-18.916 42.168-42.168s-18.917-42.168-42.168-42.168h-.005c-.2-4.941-.72-9.8-1.547-14.556-.004-.018-.005-.037-.009-.055-3.141-18.017-10.633-34.555-21.348-48.496-.3-.488-.649-.943-1.049-1.348-20.394-25.715-51.897-42.238-87.19-42.238s-66.796 16.523-87.19 42.237c-.4.406-.749.86-1.049 1.348-10.715 13.941-18.207 30.48-21.348 48.496-.004.018-.005.037-.009.055-.827 4.756-1.347 9.615-1.547 14.556h-.005c-23.251 0-42.168 18.917-42.168 42.168 0 23.252 18.916 42.168 42.168 42.168h.378c1.102 12.12 4.157 23.864 9.139 35.026 1.688 3.782 6.121 5.48 9.906 3.791 3.782-1.688 5.48-6.123 3.792-9.906-5.514-12.353-8.31-25.536-8.31-39.183v-66.527c0-.013.002-.026.002-.039s-.002-.026-.002-.039v-2.911c0-3.425.183-6.808.534-10.142h191.417c.351 3.334.534 6.717.534 10.142v2.911c0 .013-.002.026-.002.039s.002.026.002.039v66.527c.001 53.07-43.173 96.244-96.242 96.244-26.881 0-52.731-11.365-70.919-31.18-2.802-3.051-7.546-3.254-10.597-.454-3.051 2.801-3.254 7.545-.454 10.597 6.652 7.246 14.193 13.512 22.375 18.696v9.617c0 5.627-4.578 10.206-10.201 10.206l-76.912-.022c-.039 0-.077 0-.115 0-19.673 0-38.195 7.642-52.167 21.526-14.015 13.928-21.747 32.449-21.771 52.159v42.855c0 4.142 3.358 7.5 7.5 7.5s7.5-3.358 7.5-7.5v-42.844c.019-15.684 6.179-30.433 17.344-41.529 11.142-11.073 25.909-17.166 41.602-17.166h.092l11.834.003v187.536h-67.25c-1.997 0-3.622-1.625-3.622-3.622v-49.465c0-4.142-3.358-7.5-7.5-7.5s-7.5 3.358-7.5 7.5v49.465c0 10.268 8.354 18.622 18.622 18.622h350.956c4.142 0 7.5-3.358 7.5-7.5s-3.358-7.5-7.5-7.5h-13.928v-187.517h12.165c32.41.04 58.746 26.602 58.706 59.22v124.676c0 1.997-1.625 3.622-3.622 3.622h-20.636c-4.142 0-7.5 3.358-7.5 7.5s3.358 7.5 7.5 7.5h20.636c10.268 0 18.622-8.353 18.622-18.622v-124.667c.05-40.88-33.006-74.179-73.696-74.229zm-8.748-145.622c0 14.949-12.136 27.114-27.073 27.166v-54.332c14.936.052 27.073 12.217 27.073 27.166zm-73.674-108.861h-129.284c17.096-15.526 39.783-25 64.642-25s47.546 9.474 64.642 25zm-202.957 108.861c0-14.949 12.136-27.114 27.073-27.166v54.332c-14.937-.052-27.073-12.218-27.073-27.166zm45.411-62.761c3.068-11.327 8.156-21.831 14.854-31.1h156.1c6.698 9.269 11.786 19.773 14.854 31.1zm48.309 198.177v-1.64c13.938 6.102 29.118 9.363 44.595 9.363 16.032 0 31.279-3.415 45.061-9.545v1.833c0 13.893 11.308 25.195 25.206 25.195h11.374v57.834c-.053 56.579-42.319 82.332-81.598 82.332-.026 0-.053 0-.079 0-56.115-.049-81.638-42.822-81.605-82.548v-57.622l11.841.003c13.898.001 25.205-11.306 25.205-25.205zm164.484 212.723h-239.778v-187.531l23.248.007v57.62c-.025 29.982 10.453 55.254 30.3 73.085 17.539 15.757 41.082 24.447 66.291 24.469h.097c25.158-.001 48.665-8.64 66.192-24.332 19.861-17.781 30.374-43.02 30.401-72.993v-57.841h23.248v187.516z"/></g></svg>