<?xml version="1.0" standalone="no"?><svg xmlns="http://www.w3.org/2000/svg" viewBox="0 0 1440 320"><path fill="#000000" fill-opacity="1" d="M0,224L18.5,208C36.9,192,74,160,111,176C147.7,192,185,256,222,256C258.5,256,295,192,332,160C369.2,128,406,128,443,133.3C480,139,517,149,554,181.3C590.8,213,628,267,665,277.3C701.5,288,738,256,775,218.7C812.3,181,849,139,886,149.3C923.1,160,960,224,997,240C1033.8,256,1071,224,1108,213.3C1144.6,203,1182,213,1218,224C1255.4,235,1292,245,1329,256C1366.2,267,1403,277,1422,282.7L1440,288L1440,0L1421.5,0C1403.1,0,1366,0,1329,0C1292.3,0,1255,0,1218,0C1181.5,0,1145,0,1108,0C1070.8,0,1034,0,997,0C960,0,923,0,886,0C849.2,0,812,0,775,0C738.5,0,702,0,665,0C627.7,0,591,0,554,0C516.9,0,480,0,443,0C406.2,0,369,0,332,0C295.4,0,258,0,222,0C184.6,0,148,0,111,0C73.8,0,37,0,18,0L0,0Z"></path></svg>