<?xml version="1.0" standalone="no"?><svg xmlns="http://www.w3.org/2000/svg" viewBox="0 0 1440 320"><path fill="#000000" fill-opacity="1" d="M0,96L24,96C48,96,96,96,144,128C192,160,240,224,288,224C336,224,384,160,432,144C480,128,528,160,576,149.3C624,139,672,85,720,96C768,107,816,181,864,213.3C912,245,960,235,1008,218.7C1056,203,1104,181,1152,181.3C1200,181,1248,203,1296,202.7C1344,203,1392,181,1416,170.7L1440,160L1440,0L1416,0C1392,0,1344,0,1296,0C1248,0,1200,0,1152,0C1104,0,1056,0,1008,0C960,0,912,0,864,0C816,0,768,0,720,0C672,0,624,0,576,0C528,0,480,0,432,0C384,0,336,0,288,0C240,0,192,0,144,0C96,0,48,0,24,0L0,0Z"></path></svg>