<svg width="462" height="512" viewBox="0 0 462 512" fill="none" xmlns="http://www.w3.org/2000/svg">
<g clip-path="url(#clip0_303:2)">
<path d="M464 32.0001H344L334.6 13.3001C332.609 9.30219 329.541 5.93928 325.743 3.58964C321.945 1.24 317.566 -0.00315004 313.1 5.32569e-05H198.8C194.344 -0.0170773 189.973 1.22143 186.188 3.57369C182.403 5.92595 179.358 9.2968 177.4 13.3001L168 32.0001H48C43.7565 32.0001 39.6869 33.6858 36.6863 36.6863C33.6857 39.6869 32 43.7566 32 48.0001V80.0001C32 84.2435 33.6857 88.3132 36.6863 91.3138C39.6869 94.3143 43.7565 96.0001 48 96.0001H464C468.243 96.0001 472.313 94.3143 475.314 91.3138C478.314 88.3132 480 84.2435 480 80.0001V48.0001C480 43.7566 478.314 39.6869 475.314 36.6863C472.313 33.6858 468.243 32.0001 464 32.0001V32.0001ZM85.2 467C85.9631 479.186 91.3416 490.623 100.241 498.984C109.14 507.344 120.89 511.998 133.1 512H378.9C391.11 511.998 402.86 507.344 411.759 498.984C420.658 490.623 426.037 479.186 426.8 467L448 128H64L85.2 467Z" fill="#FF5757"/>
</g>
<defs>
<clipPath id="clip0_303:2">
<rect width="512" height="512" fill="white"/>
</clipPath>
</defs>
</svg>
